<svg width="150" height="150" viewBox="0 0 150 150" fill="none" xmlns="http://www.w3.org/2000/svg">
<path d="M104.292 32.7712C102.752 32.7712 101.504 31.5231 101.504 29.9836V21.1562C101.504 12.5646 94.5146 5.5752 85.923 5.5752H64.0775C55.4859 5.5752 48.4966 12.5646 48.4966 21.1562V29.9836C48.4966 31.5234 47.2485 32.7712 45.709 32.7712C44.1691 32.7712 42.9214 31.5231 42.9214 29.9836V21.1562C42.9211 9.49101 52.4118 0 64.0772 0H85.9227C97.5885 0 107.079 9.49101 107.079 21.1562V29.9836C107.079 31.5231 105.831 32.7712 104.292 32.7712Z" fill="url(#paint0_linear_254_9)"/>
<path d="M128.217 21.7627L128.076 21.8316C123.309 24.158 117.73 24.1314 112.986 21.7589C108.18 19.4137 102.563 19.4137 97.7612 21.7589L97.7574 21.7627C92.9516 24.1079 87.3351 24.1079 82.5292 21.7627L82.5254 21.7589C77.723 19.4137 72.1068 19.4137 67.301 21.7589L67.2972 21.7627C62.4948 24.1079 56.8748 24.1079 52.0728 21.7627H52.0689C49.6678 20.5882 47.0621 20.0011 44.4567 20.0011C41.8238 20.0011 39.1906 20.6008 36.7646 21.8002C31.9991 24.1563 26.3935 24.0945 21.616 21.763C18.0992 20.0465 14 22.6073 14 26.5205V117.647C14 123.936 19.0985 129.035 25.3877 129.035H124.445C130.735 129.035 135.833 123.936 135.833 117.647V26.5205C135.833 22.6073 131.734 20.0465 128.217 21.7627ZM45.8293 39.928C43.5913 39.928 41.7772 38.1139 41.7772 35.8759C41.7772 33.6379 43.5913 31.8239 45.8293 31.8239C48.0673 31.8239 49.8813 33.6379 49.8813 35.8759C49.8813 38.1139 48.0673 39.928 45.8293 39.928ZM104.004 39.928C101.766 39.928 99.9523 38.1139 99.9523 35.8759C99.9523 33.6379 101.766 31.8239 104.004 31.8239C106.242 31.8239 108.056 33.6379 108.056 35.8759C108.056 38.1139 106.242 39.928 104.004 39.928Z" fill="url(#paint1_linear_254_9)"/>
<path d="M128.301 42.7281L128.16 42.7969C123.392 45.1234 117.814 45.0967 113.069 42.7242C108.263 40.379 102.647 40.379 97.8447 42.7242L97.8409 42.7281C93.0351 45.0733 87.4186 45.0733 82.6127 42.7281L82.6089 42.7242C77.8065 40.379 72.1903 40.379 67.3845 42.7242L67.3807 42.7281C62.5783 45.0733 56.9583 45.0733 52.1562 42.7281H52.1524C49.7513 41.5535 47.1456 40.9661 44.5402 40.9661C41.9073 40.9661 39.2741 41.5658 36.848 42.7653C32.0826 45.1213 26.477 45.0595 21.6995 42.7281C18.1827 41.0115 14.0835 43.5724 14.0835 47.4856V138.612C14.0835 144.901 19.182 150 25.4712 150H124.529C130.818 150 135.917 144.901 135.917 138.612V47.4856C135.917 43.5724 131.818 41.0115 128.301 42.7281ZM45.9128 60.893C43.6748 60.893 41.8607 59.0789 41.8607 56.8409C41.8607 54.603 43.6748 52.7889 45.9128 52.7889C48.1508 52.7889 49.9648 54.603 49.9648 56.8409C49.9648 59.0789 48.1508 60.893 45.9128 60.893ZM104.088 60.893C101.85 60.893 100.036 59.0789 100.036 56.8409C100.036 54.603 101.85 52.7889 104.088 52.7889C106.326 52.7889 108.14 54.603 108.14 56.8409C108.14 59.0789 106.326 60.893 104.088 60.893Z" fill="url(#paint2_linear_254_9)"/>
<path d="M135.917 138.612V84.8617L108.128 57.073C108.007 59.202 106.247 60.8927 104.088 60.8927C103.105 60.8927 102.205 60.5429 101.504 59.9617V77.3939C101.504 85.9257 97.4471 93.5236 91.1661 98.3746L49.9164 57.4322C49.6296 59.3889 47.9488 60.8927 45.9124 60.8927C44.7259 60.8927 43.6621 60.3797 42.9209 59.567V77.3936C42.9209 86.6318 46.8514 94.965 53.1218 100.823L102.298 150H124.529C130.818 150 135.917 144.902 135.917 138.612Z" fill="url(#paint3_linear_254_9)"/>
<path d="M75.0001 109.473C57.3115 109.473 42.9209 95.0824 42.9209 77.3938V56.8582C42.9209 55.3183 44.1689 54.0706 45.7085 54.0706C47.248 54.0706 48.4961 55.3186 48.4961 56.8582V77.3938C48.4961 92.0077 60.3856 103.897 74.9998 103.897C89.614 103.897 101.504 92.0074 101.504 77.3938V56.8582C101.504 55.3183 102.752 54.0706 104.291 54.0706C105.831 54.0706 107.079 55.3186 107.079 56.8582V77.3938C107.079 95.0824 92.6884 109.473 75.0001 109.473Z" fill="url(#paint4_linear_254_9)"/>
<path d="M14.0835 108.115V138.612C14.0835 144.902 19.182 150 25.4712 150H124.529C130.818 150 135.917 144.901 135.917 138.612V108.115H14.0835Z" fill="url(#paint5_linear_254_9)"/>
<defs>
<linearGradient id="paint0_linear_254_9" x1="74.9985" y1="3.77614" x2="74.9985" y2="35.6643" gradientUnits="userSpaceOnUse">
<stop stop-color="#FFB92D"/>
<stop offset="1" stop-color="#F59500"/>
</linearGradient>
<linearGradient id="paint1_linear_254_9" x1="74.915" y1="25.2819" x2="74.915" y2="69.2162" gradientUnits="userSpaceOnUse">
<stop stop-color="#61DB99"/>
<stop offset="1" stop-color="#009E74"/>
</linearGradient>
<linearGradient id="paint2_linear_254_9" x1="76.7428" y1="95.4837" x2="164.623" y2="95.4837" gradientUnits="userSpaceOnUse">
<stop stop-color="#A7F3CE"/>
<stop offset="1" stop-color="#61DB99"/>
</linearGradient>
<linearGradient id="paint3_linear_254_9" x1="131.279" y1="129.618" x2="25.117" y2="23.4588" gradientUnits="userSpaceOnUse">
<stop stop-color="#61DB99" stop-opacity="0"/>
<stop offset="1" stop-color="#009E74"/>
</linearGradient>
<linearGradient id="paint4_linear_254_9" x1="74.9984" y1="54.0727" x2="74.9984" y2="109.474" gradientUnits="userSpaceOnUse">
<stop stop-color="#FFB92D"/>
<stop offset="1" stop-color="#F59500"/>
</linearGradient>
<linearGradient id="paint5_linear_254_9" x1="128.553" y1="117.71" x2="-2.72667" y2="143.089" gradientUnits="userSpaceOnUse">
<stop stop-color="#61DB99" stop-opacity="0"/>
<stop offset="1" stop-color="#009E74"/>
</linearGradient>
</defs>
</svg>
